<svg aria-hidden="true" style="position: absolute; width: 0; height: 0; overflow: hidden;" version="1.1" xmlns="http://www.w3.org/2000/svg" xmlns:xlink="http://www.w3.org/1999/xlink">
<defs>
<symbol id="icon-clock" viewBox="0 0 32 32">
<path d="M16 0c-8.837 0-16 7.163-16 16s7.163 16 16 16v0c8.837 0 16-7.163 16-16s-7.163-16-16-16v0zM16 30.976c-8.271 0-14.976-6.705-14.976-14.976s6.705-14.976 14.976-14.976v0c8.271 0 14.976 6.705 14.976 14.976s-6.705 14.976-14.976 14.976v0z"></path>
<path d="M16.64 13.824v-5.376c0-0.353-0.287-0.64-0.64-0.64s-0.64 0.287-0.64 0.64v0 5.376c-0.64 0.256-1.28 0.896-1.408 1.536h-3.84c-0.318 0-0.576 0.258-0.576 0.576s0.258 0.576 0.576 0.576h3.84c0.206 1.005 1.083 1.75 2.134 1.75 1.202 0 2.176-0.974 2.176-2.176 0-1.051-0.745-1.928-1.736-2.131l-0.014-0.002zM16 17.024c-0.601 0-1.088-0.487-1.088-1.088s0.487-1.088 1.088-1.088v0c0.601 0 1.088 0.487 1.088 1.088s-0.487 1.088-1.088 1.088v0zM16 5.248c0.256 0 0.512-0.256 0.512-0.512v-0.512c0-0.283-0.229-0.512-0.512-0.512s-0.512 0.229-0.512 0.512v0.512c0 0.256 0.256 0.512 0.512 0.512zM16 26.624c-0.256 0-0.512 0.256-0.512 0.512v0.512c0 0.283 0.229 0.512 0.512 0.512s0.512-0.229 0.512-0.512v-0.512c0-0.256-0.256-0.512-0.512-0.512zM27.776 15.36h-0.512c-0.318 0-0.576 0.258-0.576 0.576s0.258 0.576 0.576 0.576h0.512c0.318 0 0.576-0.258 0.576-0.576s-0.258-0.576-0.576-0.576v0zM4.864 15.36h-0.64c-0.318 0-0.576 0.258-0.576 0.576s0.258 0.576 0.576 0.576h0.64c0.318 0 0.576-0.258 0.576-0.576s-0.258-0.576-0.576-0.576v0zM23.936 7.296l-0.384 0.384c-0.098 0.098-0.159 0.234-0.159 0.384 0 0.3 0.243 0.543 0.543 0.543 0.15 0 0.286-0.061 0.384-0.159l0.384-0.384c0.098-0.098 0.159-0.234 0.159-0.384 0-0.3-0.243-0.543-0.543-0.543-0.15 0-0.286 0.061-0.384 0.159v0zM7.68 23.424l-0.384 0.384c-0.098 0.098-0.159 0.234-0.159 0.384 0 0.3 0.243 0.543 0.543 0.543 0.15 0 0.286-0.061 0.384-0.159l0.384-0.384c0.098-0.098 0.159-0.234 0.159-0.384 0-0.3-0.243-0.543-0.543-0.543-0.15 0-0.286 0.061-0.384 0.159v0zM24.32 23.424c-0.098-0.098-0.234-0.159-0.384-0.159-0.3 0-0.543 0.243-0.543 0.543 0 0.15 0.061 0.286 0.159 0.384l0.384 0.384c0.094 0.107 0.231 0.173 0.384 0.173s0.29-0.067 0.384-0.173l0-0.001v-0.768l-0.384-0.384zM8.064 7.296c-0.098-0.098-0.234-0.159-0.384-0.159-0.3 0-0.543 0.243-0.543 0.543 0 0.15 0.061 0.286 0.159 0.384l0.384 0.384c0.094 0.107 0.231 0.173 0.384 0.173s0.29-0.067 0.384-0.173l0-0.001c0.256-0.256 0.256-0.64 0-0.768l-0.384-0.384z"></path>
</symbol>
<symbol id="icon-cooking" viewBox="0 0 32 32">
<path d="M23.040 8.576l-0.256-0.128-0.128-0.384c-0.023-1.92-0.747-3.667-1.927-5l0.007 0.008c-1.28-1.28-2.816-2.048-4.352-2.048-1.664 0-3.328 0.768-4.48 2.048-1.192 1.347-1.92 3.128-1.92 5.080 0 0.014 0 0.028 0 0.042v-0.002 0.256l-0.384 0.128-0.256-0.128-0.128-0.384c0-2.176 0.768-4.224 2.048-5.76 1.28-1.408 3.2-2.304 5.12-2.304 1.792 0 3.584 0.896 4.992 2.304 1.28 1.536 2.048 3.584 2.048 5.76v0.384l-0.384 0.128z"></path>
<path d="M24.32 19.712l-0.384-0.128v-0.64l0.384-0.256c1.664 0 3.2-0.64 4.352-2.048 1.146-1.334 1.844-3.081 1.844-4.992s-0.698-3.658-1.852-5.002l0.009 0.010c-1.087-1.29-2.704-2.103-4.511-2.103-0.676 0-1.326 0.114-1.931 0.324l0.041-0.012h-0.256l-0.256-0.256v-0.384l0.384-0.256c0.642-0.227 1.383-0.358 2.154-0.358 1.996 0 3.787 0.879 5.007 2.271l0.007 0.008c1.328 1.537 2.137 3.554 2.137 5.76s-0.809 4.223-2.146 5.771l0.010-0.011c-1.227 1.415-3.028 2.305-5.037 2.305-0.029 0-0.059-0-0.088-0.001l0.004 0zM8.32 19.712c-1.792 0-3.584-0.896-4.992-2.304-1.328-1.537-2.137-3.554-2.137-5.76s0.809-4.223 2.146-5.771l-0.010 0.011c1.226-1.399 3.018-2.278 5.014-2.278 0.771 0 1.512 0.131 2.201 0.373l-0.047-0.014h0.256v0.256c0.043 0.073 0.069 0.162 0.069 0.256s-0.025 0.183-0.070 0.258l0.001-0.002v0.128c-0.068 0.061-0.157 0.098-0.256 0.098s-0.188-0.037-0.256-0.098l0 0-1.792-0.256c-1.664 0-3.328 0.512-4.608 2.048-1.146 1.334-1.844 3.081-1.844 4.992s0.698 3.658 1.852 5.002l-0.009-0.010c1.28 1.28 2.688 2.048 4.352 2.048h0.256v0.256h0.128c0.070 0.087 0.112 0.198 0.112 0.32s-0.042 0.233-0.113 0.321l0.001-0.001h-0.256v0.128z"></path>
<path d="M24.32 32h-16l-0.256-0.128-0.128-0.384v-12.544l0.384-0.256c0.128 0 0.256 0 0.384 0.256v12.032h15.104v-11.776l0.128-0.256 0.384-0.256s0.256 0 0.256 0.256l0.128 0.256v12.8l-0.384 0.128z"></path>
<path d="M27.264 27.264h-15.744l-0.384-0.128v-0.768l0.384-0.128h15.872l0.384 0.128v0.768h-0.384z"></path>
</symbol>
<symbol id="icon-facebook" viewBox="0 0 32 32">
<path d="M22.6 0h-3.8c-4 0-6.6 3-6.6 8v3.6h-3.6c-0.4 0-0.6 0.2-0.6 0.6v5.2c0 0.4 0.2 0.6 0.6 0.6h3.4v13.4c0 0.4 0.2 0.6 0.6 0.6h4.8c0.2 0 0.4-0.2 0.4-0.6v-13.4h4.4c0.2 0 0.6-0.2 0.6-0.6v-5.2l-0.2-0.6h-4.6v-3.2c0-1.4 0.4-2.2 2-2.2h2.6c0.2 0 0.4-0.2 0.4-0.6v-5c0-0.4 0-0.6-0.4-0.6z"></path>
</symbol>
<symbol id="icon-guests" viewBox="0 0 32 32">
<path d="M11.904 0c-3.328 0-6.016 3.072-6.016 6.912s2.688 6.784 6.016 6.784 6.016-3.072 6.016-6.784c0-3.84-2.688-6.912-6.016-6.912zM11.904 12.544c-2.816 0-4.992-2.56-4.992-5.632 0-3.2 2.176-5.76 4.992-5.76 2.688 0 4.992 2.56 4.992 5.76 0 3.072-2.304 5.632-5.12 5.632zM24.064 2.816c-2.432 0-4.48 2.304-4.48 5.12 0 2.944 2.048 5.12 4.48 5.12 2.56 0 4.608-2.176 4.608-5.12 0-2.816-2.048-5.12-4.608-5.12zM24.064 12.032c-1.92 0-3.456-1.792-3.456-4.096 0-2.176 1.536-3.84 3.456-3.84 2.048 0 3.584 1.664 3.584 3.84 0 2.304-1.536 4.096-3.584 4.096z"></path>
<path d="M32.128 20.736c-0.35-3.186-2.324-5.841-5.066-7.145l-0.054-0.023s-1.28 1.024-2.944 1.024c-1.792 0-2.944-1.024-2.944-1.024s-1.28 0.512-2.56 1.792c-0.779-0.736-1.662-1.375-2.623-1.888l-0.065-0.032s-1.664 1.408-3.968 1.28c-2.56 0-3.84-1.28-3.84-1.28s-5.504 2.048-6.656 9.216c0 0-1.28 3.84 1.536 9.344h17.536s1.28-2.56 1.536-3.968h8.704c2.176-3.84 1.28-7.296 1.28-7.296zM20.096 30.976h-16.384c-2.176-4.736-1.28-8.192-1.28-8.192 0.64-3.584 2.56-6.4 5.504-8.064 2.432 1.664 5.504 1.664 7.936 0 2.912 1.671 4.944 4.592 5.371 8.011l0.005 0.053s0.896 4.224-1.28 8.064zM30.336 26.88h-8.064c0.384-2.048 0-4.224 0-4.224-0.384-2.56-1.408-4.736-2.944-6.4 0.512-0.64 1.152-1.024 1.664-1.408 1.92 1.28 4.352 1.28 6.144 0 2.176 1.152 3.584 3.328 3.968 6.016 0 0 0.768 2.816-0.768 6.016z"></path>
</symbol>
<symbol id="icon-instagram" viewBox="0 0 32 32">
<path d="M16.4 32h-0.4l-7-0.2c-2 0-4-0.8-5.6-2-1.391-1.228-2.387-2.875-2.79-4.742l-0.010-0.058c-0.6-1.8-0.6-3.4-0.6-5 0.14-5.041 0.356-9.564 0.657-14.063l-0.057 1.063c0.4-2 1.4-3.6 2.8-4.8 1.6-1.2 3.4-2 5.6-2 2.093-0.14 4.537-0.22 7-0.22s4.907 0.080 7.33 0.237l-0.33-0.017c2 0 4 0.8 5.6 2 1.4 1.2 2.4 2.8 2.8 4.8 0.174 1.869 0.388 4.986 0.561 8.115l0.039 0.885c-0.212 4.014-0.426 7.131-0.682 10.236l0.082-1.236c-0.4 2-1.4 3.6-2.8 4.8-1.6 1.2-3.4 2-5.6 2l-6.6 0.2zM16 29.4h7c1.4 0 2.8-0.6 4-1.6 1-0.8 1.6-2 2-3.4s0.4-3 0.4-4.4c-0.070-4.629-0.215-8.957-0.435-13.264l0.035 0.864c-0.4-1.4-1-2.6-2-3.4-1.2-1-2.6-1.4-4-1.6-2.093-0.143-4.537-0.225-7-0.225s-4.907 0.082-7.329 0.242l0.329-0.017c-1.4 0-2.8 0.6-4 1.6-1 0.8-1.6 2-2 3.4s-0.4 3-0.4 4.4c0.069 4.621 0.213 8.948 0.435 13.255l-0.035-0.855c0.4 1.4 1 2.6 2 3.4 1.2 1 2.6 1.4 4 1.6h7zM16 24c-0.534 0.127-1.147 0.2-1.778 0.2-4.418 0-8-3.582-8-8s3.582-8 8-8c0.63 0 1.244 0.073 1.832 0.211l-0.054-0.011c3.59 0.839 6.222 4.012 6.222 7.8s-2.633 6.961-6.168 7.789l-0.054 0.011zM16 10.8c-2.982 0-5.4 2.418-5.4 5.4s2.418 5.4 5.4 5.4v0c2.982 0 5.4-2.418 5.4-5.4s-2.418-5.4-5.4-5.4v0zM24.6 5.8c-1.105 0-2 0.895-2 2s0.895 2 2 2v0c1.105 0 2-0.895 2-2s-0.895-2-2-2v0z"></path>
</symbol>
<symbol id="icon-location" viewBox="0 0 23 32">
<path d="M11.733 0c6.4 0 11.733 5.12 11.733 11.52 0 2.347-0.853 4.693-2.347 6.827l-8.533 11.307h-0.213c-0.427 0.427-1.067 0.427-1.28 0l-8.96-11.52c-1.28-2.133-2.133-4.267-2.133-6.613 0-6.4 5.333-11.52 11.733-11.52zM11.733 17.707c3.535 0 6.4-2.865 6.4-6.4v0c-0.23-3.346-3.001-5.973-6.386-5.973-0.005 0-0.010 0-0.015 0h0.001c-0.001 0-0.002 0-0.004 0-3.46 0-6.278 2.745-6.396 6.176l-0 0.011c0.118 3.442 2.937 6.187 6.396 6.187 0.001 0 0.002 0 0.004 0h-0z"></path>
</symbol>
<symbol id="icon-pagination" viewBox="0 0 192 32">
<path d="M85.6 24v1.6h-12.48v-1.28l7.36-7.36c0.96-0.96 1.6-1.6 1.92-2.4l0.48-1.92c0-1.12-0.32-1.92-1.12-2.56-0.755-0.518-1.688-0.827-2.693-0.827-0.178 0-0.355 0.010-0.528 0.029l0.021-0.002c-1.92 0-3.52 0.64-4.8 1.92l-1.28-1.12c0.8-0.8 1.6-1.44 2.72-1.92 1.024-0.407 2.211-0.643 3.453-0.643 0.080 0 0.159 0.001 0.238 0.003l-0.012-0c1.76 0 3.2 0.48 4.32 1.28 1.12 0.96 1.6 2.080 1.6 3.52 0 0.96-0.16 1.92-0.64 2.72-0.611 1.112-1.357 2.062-2.233 2.873l-0.007 0.007-6.080 6.080h9.76zM94.72 4h1.6l-8.48 24.16h-1.6l8.48-24zM102.4 7.68v17.92h-1.92v-16.32h-4.16v-1.6h6.080zM111.36 15.040c2.56 0 4.48 0.48 5.6 1.44 1.28 0.8 1.76 2.24 1.76 3.84 0 1.12-0.16 1.92-0.64 2.72-0.48 0.96-1.28 1.6-2.24 2.080-1.072 0.388-2.31 0.613-3.6 0.613s-2.528-0.225-3.676-0.637l0.076 0.024c-1.12-0.48-2.080-0.96-2.72-1.6l0.8-1.6c0.64 0.64 1.44 1.12 2.4 1.6 0.96 0.32 2.080 0.48 3.2 0.48 1.44 0 2.56-0.32 3.36-0.96s1.28-1.6 1.28-2.56c0.004-0.061 0.006-0.132 0.006-0.203 0-1.115-0.57-2.096-1.435-2.669l-0.012-0.007c-0.96-0.64-2.4-0.96-4.64-0.96h-3.68l0.96-8.96h9.76v1.6h-8l-0.8 5.76h2.4z"></path>
<path fill="none" stroke="#ab816c" style="stroke: var(--color2, #ab816c)" stroke-linejoin="miter" stroke-linecap="butt" stroke-miterlimit="4" stroke-width="1.6" d="M136 15.2h56M56 15.2h-56"></path>
</symbol>
<symbol id="icon-phone" viewBox="0 0 32 32">
<path d="M29.538 20.431l-5.908-0.738c-0.243-0.088-0.523-0.139-0.816-0.139-0.634 0-1.212 0.24-1.648 0.633l0.002-0.002-3.692 2.462c-3.826-1.887-6.875-4.857-8.81-8.508l-0.052-0.107 2.462-3.446c0.985-0.738 1.231-1.477 0.738-2.462-0.476-1.504-0.75-3.234-0.75-5.029 0-0.223 0.004-0.444 0.013-0.665l-0.001 0.032c0-1.231-1.231-2.462-2.462-2.462h-6.154c-1.359 0-2.462 1.102-2.462 2.462v0c0 15.754 13.292 28.8 29.538 28.8 1.231 0 2.462-1.231 2.462-2.462v-5.908c0-1.231-1.231-2.462-2.462-2.462z"></path>
</symbol>
<symbol id="icon-rate4" viewBox="0 0 173 32">
<path d="M14.208 4.736c0-0.707 0.573-1.28 1.28-1.28s1.28 0.573 1.28 1.28v0l1.792 5.76c0.256 0.64 0.64 0.896 1.28 0.896h6.144c0.707 0 1.28 0.573 1.28 1.28 0 0.417-0.2 0.788-0.509 1.022l-5.123 3.714c-0.28 0.236-0.457 0.588-0.457 0.981 0 0.153 0.027 0.3 0.076 0.436l-0.003-0.009 1.92 5.888c0.027 0.097 0.042 0.209 0.042 0.325 0 0.707-0.573 1.28-1.28 1.28-0.253 0-0.489-0.073-0.687-0.2l0.005 0.003-5.12-3.584c-0.198-0.132-0.442-0.211-0.704-0.211s-0.506 0.079-0.709 0.214l0.005-0.003-5.12 3.584c-0.157 0.074-0.341 0.118-0.536 0.118-0.707 0-1.28-0.573-1.28-1.28 0-0.087 0.009-0.172 0.025-0.254l-0.001 0.008 1.792-5.888c0.047-0.127 0.073-0.274 0.073-0.427 0-0.393-0.177-0.744-0.456-0.979l-0.002-0.002-5.12-3.712c-0.229-0.231-0.371-0.55-0.371-0.901 0-0.707 0.573-1.28 1.28-1.28 0.040 0 0.081 0.002 0.12 0.006l-0.005-0h6.144c0.017 0.001 0.038 0.001 0.059 0.001 0.57 0 1.053-0.373 1.219-0.888l0.002-0.009 1.536-5.888z"></path>
<path fill="none" stroke="#ab816c" style="stroke: var(--color2, #ab816c)" stroke-linejoin="miter" stroke-linecap="butt" stroke-miterlimit="4" stroke-width="1.28" d="M156.672 4.864c0.256-0.512 1.024-0.512 1.28 0l1.92 5.888c0.256 0.768 1.024 1.28 1.792 1.28h6.144c0.64 0 0.896 0.896 0.384 1.28l-4.992 3.584c-0.64 0.512-0.896 1.28-0.64 2.176l1.92 5.76c0.128 0.64-0.512 1.152-1.024 0.768l-4.992-3.584c-0.64-0.512-1.536-0.512-2.304 0l-4.992 3.584c-0.512 0.384-1.152-0.128-0.896-0.768l1.92-5.76c0.256-0.896 0-1.664-0.768-2.176l-4.992-3.712c-0.156-0.118-0.256-0.303-0.256-0.512 0-0.353 0.287-0.64 0.64-0.64v0h6.144c0.896 0 1.664-0.512 1.92-1.28l1.792-5.888z"></path>
<path d="M120.704 4.736c0.173-0.516 0.652-0.88 1.216-0.88s1.043 0.365 1.213 0.871l0.003 0.009 1.792 5.76c0.256 0.64 0.768 0.896 1.28 0.896h6.144c0.707 0 1.28 0.573 1.28 1.28 0 0.417-0.2 0.788-0.509 1.022l-0.003 0.002-4.992 3.712c-0.34 0.234-0.561 0.62-0.561 1.059 0 0.124 0.018 0.245 0.051 0.358l-0.002-0.009 1.92 5.888c0.027 0.097 0.042 0.209 0.042 0.325 0 0.707-0.573 1.28-1.28 1.28-0.253 0-0.489-0.073-0.687-0.2l0.005 0.003-4.992-3.584c-0.211-0.16-0.478-0.256-0.768-0.256s-0.557 0.096-0.771 0.258l0.003-0.002-4.992 3.584c-0.193 0.123-0.429 0.197-0.682 0.197-0.707 0-1.28-0.573-1.28-1.28 0-0.115 0.015-0.227 0.044-0.334l-0.002 0.009 1.92-5.888c0.031-0.105 0.049-0.225 0.049-0.349 0-0.438-0.22-0.825-0.556-1.056l-0.004-0.003-4.992-3.712c-0.231-0.231-0.373-0.551-0.373-0.904 0-0.658 0.497-1.2 1.136-1.272l0.006-0.001h6.144c0.017 0.001 0.038 0.001 0.059 0.001 0.57 0 1.053-0.373 1.219-0.888l0.002-0.009 1.92-5.76zM85.12 4.736c0-0.707 0.573-1.28 1.28-1.28s1.28 0.573 1.28 1.28v0l1.792 5.76c0.256 0.64 0.768 0.896 1.28 0.896h6.144c0.707 0 1.28 0.573 1.28 1.28 0 0.417-0.2 0.788-0.509 1.022l-0.003 0.002-4.992 3.712c-0.34 0.234-0.561 0.62-0.561 1.059 0 0.124 0.018 0.245 0.051 0.358l-0.002-0.009 1.92 5.888c0.027 0.097 0.042 0.209 0.042 0.325 0 0.707-0.573 1.28-1.28 1.28-0.253 0-0.489-0.073-0.687-0.2l0.005 0.003-5.12-3.584c-0.184-0.108-0.404-0.172-0.64-0.172s-0.456 0.064-0.646 0.175l0.006-0.003-5.12 3.584c-0.193 0.123-0.429 0.197-0.682 0.197-0.707 0-1.28-0.573-1.28-1.28 0-0.115 0.015-0.227 0.044-0.334l-0.002 0.009 1.92-5.888c0.031-0.105 0.049-0.225 0.049-0.349 0-0.438-0.22-0.825-0.556-1.056l-0.004-0.003-4.992-3.712c-0.312-0.236-0.512-0.607-0.512-1.024 0-0.707 0.573-1.28 1.28-1.28h6.016c0.017 0.001 0.038 0.001 0.059 0.001 0.57 0 1.053-0.373 1.219-0.888l0.002-0.009 1.792-5.76zM49.664 4.736c0-0.707 0.573-1.28 1.28-1.28s1.28 0.573 1.28 1.28v0l1.792 5.76c0.256 0.64 0.768 0.896 1.28 0.896h6.144c0.707 0 1.28 0.573 1.28 1.28 0 0.417-0.2 0.788-0.509 1.022l-5.123 3.714c-0.28 0.236-0.457 0.588-0.457 0.981 0 0.153 0.027 0.3 0.076 0.436l-0.003-0.009 1.92 5.888c0.027 0.097 0.042 0.209 0.042 0.325 0 0.707-0.573 1.28-1.28 1.28-0.253 0-0.489-0.073-0.687-0.2l0.005 0.003-5.12-3.584c-0.198-0.132-0.442-0.211-0.704-0.211s-0.506 0.079-0.709 0.214l0.005-0.003-4.992 3.584c-0.193 0.123-0.429 0.197-0.682 0.197-0.707 0-1.28-0.573-1.28-1.28 0-0.115 0.015-0.227 0.044-0.334l-0.002 0.009 1.92-5.888c0.031-0.105 0.049-0.225 0.049-0.349 0-0.438-0.22-0.825-0.556-1.056l-0.004-0.003-5.12-3.712c-0.318-0.236-0.522-0.61-0.522-1.031 0-0.707 0.573-1.28 1.28-1.28 0.049 0 0.097 0.003 0.144 0.008l-0.006-0.001h6.144c0.017 0.001 0.038 0.001 0.059 0.001 0.57 0 1.053-0.373 1.219-0.888l0.002-0.009 1.792-5.76z"></path>
</symbol>
<symbol id="icon-rate5" viewBox="0 0 181 32">
<path d="M14.667 4c0-0.736 0.597-1.333 1.333-1.333s1.333 0.597 1.333 1.333v0l2 6.133c0.133 0.533 0.667 0.933 1.333 0.933h6.4c0.728 0.011 1.315 0.603 1.315 1.333 0 0.364-0.145 0.693-0.381 0.934l0-0-5.333 4c-0.292 0.246-0.477 0.612-0.477 1.022 0 0.16 0.028 0.313 0.079 0.454l-0.003-0.009 2 6.267c0.028 0.102 0.044 0.218 0.044 0.338 0 0.736-0.597 1.333-1.333 1.333-0.263 0-0.509-0.076-0.716-0.208l0.005 0.003-5.333-3.867c-0.22-0.166-0.498-0.267-0.8-0.267s-0.58 0.1-0.803 0.269l-5.33 3.864c-0.201 0.129-0.447 0.205-0.71 0.205-0.736 0-1.333-0.597-1.333-1.333 0-0.12 0.016-0.237 0.046-0.348l-0.002 0.009 1.867-6.4c0.048-0.133 0.076-0.286 0.076-0.445 0-0.409-0.184-0.775-0.474-1.020l-0.002-0.002-5.467-3.867c-0.325-0.246-0.533-0.632-0.533-1.067 0-0.736 0.597-1.333 1.333-1.333h6.533c0.018 0.001 0.040 0.001 0.061 0.001 0.594 0 1.097-0.389 1.27-0.925l0.003-0.009 2-6.133zM164 4c0-0.736 0.597-1.333 1.333-1.333s1.333 0.597 1.333 1.333v0l2 6.133c0.133 0.533 0.667 0.933 1.333 0.933h6.4c0.736 0 1.333 0.597 1.333 1.333 0 0.435-0.208 0.821-0.53 1.064l-5.337 3.869c-0.292 0.246-0.476 0.612-0.476 1.022 0 0.16 0.028 0.313 0.079 0.454l-0.003-0.009 2 6.267c0.028 0.102 0.044 0.218 0.044 0.338 0 0.736-0.597 1.333-1.333 1.333-0.263 0-0.509-0.076-0.716-0.208l0.005 0.003-5.333-3.867c-0.22-0.166-0.498-0.267-0.8-0.267s-0.58 0.1-0.803 0.269l-5.33 3.864c-0.201 0.129-0.447 0.205-0.71 0.205-0.736 0-1.333-0.597-1.333-1.333 0-0.12 0.016-0.237 0.046-0.348l-0.002 0.009 2-6.267c0.048-0.133 0.077-0.286 0.077-0.445 0-0.409-0.184-0.775-0.474-1.020l-0.002-0.002-5.333-3.867c-0.325-0.246-0.533-0.632-0.533-1.067 0-0.736 0.597-1.333 1.333-1.333v0h6.533c0.018 0.001 0.040 0.001 0.061 0.001 0.594 0 1.097-0.389 1.27-0.925l0.003-0.009 1.867-6.267zM126.667 4c0-0.736 0.597-1.333 1.333-1.333s1.333 0.597 1.333 1.333v0l2 6.133c0.133 0.533 0.667 0.933 1.333 0.933h6.4c0.736 0 1.333 0.597 1.333 1.333 0 0.435-0.208 0.821-0.53 1.064l-5.337 3.869c-0.292 0.246-0.476 0.612-0.476 1.022 0 0.16 0.028 0.313 0.079 0.454l-0.003-0.009 2 6.267c0.028 0.102 0.044 0.218 0.044 0.338 0 0.736-0.597 1.333-1.333 1.333-0.263 0-0.509-0.076-0.716-0.208l0.005 0.003-5.333-3.867c-0.22-0.166-0.498-0.267-0.8-0.267s-0.58 0.1-0.803 0.269l-5.33 3.864c-0.201 0.129-0.447 0.205-0.71 0.205-0.736 0-1.333-0.597-1.333-1.333 0-0.12 0.016-0.237 0.046-0.348l-0.002 0.009 2-6.267c0.048-0.133 0.076-0.286 0.076-0.445 0-0.409-0.184-0.775-0.474-1.020l-0.002-0.002-5.467-4c-0.325-0.246-0.533-0.632-0.533-1.067 0-0.736 0.597-1.333 1.333-1.333v0h6.533c0.018 0.001 0.040 0.001 0.061 0.001 0.594 0 1.097-0.389 1.27-0.925l0.003-0.009 2-6.133zM89.333 4c0-0.736 0.597-1.333 1.333-1.333s1.333 0.597 1.333 1.333v0l2 6.133c0.133 0.533 0.667 0.933 1.333 0.933h6.4c0.728 0.011 1.315 0.603 1.315 1.333 0 0.364-0.145 0.693-0.381 0.934l0-0-5.333 4c-0.292 0.246-0.477 0.612-0.477 1.022 0 0.16 0.028 0.313 0.079 0.454l-0.003-0.009 2 6.267c0.028 0.102 0.044 0.218 0.044 0.338 0 0.736-0.597 1.333-1.333 1.333-0.263 0-0.509-0.076-0.716-0.208l0.005 0.003-5.333-3.867c-0.22-0.166-0.498-0.267-0.8-0.267s-0.58 0.1-0.803 0.269l-5.33 3.864c-0.201 0.129-0.447 0.205-0.71 0.205-0.736 0-1.333-0.597-1.333-1.333 0-0.12 0.016-0.237 0.046-0.348l-0.002 0.009 2-6.267c0.048-0.133 0.076-0.286 0.076-0.445 0-0.409-0.184-0.775-0.474-1.020l-0.002-0.002-5.6-4c-0.325-0.246-0.533-0.632-0.533-1.067 0-0.736 0.597-1.333 1.333-1.333h6.533c0.018 0.001 0.040 0.001 0.061 0.001 0.594 0 1.097-0.389 1.27-0.925l0.003-0.009 2-6.133zM52 4c0-0.736 0.597-1.333 1.333-1.333s1.333 0.597 1.333 1.333v0l2 6.133c0.133 0.533 0.667 0.933 1.333 0.933h6.4c0.728 0.011 1.315 0.603 1.315 1.333 0 0.364-0.145 0.693-0.381 0.934l0-0-5.333 4c-0.292 0.246-0.477 0.612-0.477 1.022 0 0.16 0.028 0.313 0.079 0.454l-0.003-0.009 2 6.267c0.028 0.102 0.044 0.218 0.044 0.338 0 0.736-0.597 1.333-1.333 1.333-0.263 0-0.509-0.076-0.716-0.208l0.005 0.003-5.333-3.867c-0.22-0.166-0.498-0.267-0.8-0.267s-0.58 0.1-0.803 0.269l-5.33 3.864c-0.201 0.129-0.447 0.205-0.71 0.205-0.736 0-1.333-0.597-1.333-1.333 0-0.12 0.016-0.237 0.046-0.348l-0.002 0.009 2-6.267c0.048-0.133 0.077-0.286 0.077-0.445 0-0.409-0.184-0.775-0.474-1.020l-0.002-0.002-5.6-4c-0.325-0.246-0.533-0.632-0.533-1.067 0-0.736 0.597-1.333 1.333-1.333h6.533c0.018 0.001 0.040 0.001 0.061 0.001 0.594 0 1.097-0.389 1.27-0.925l0.003-0.009 2-6.133z"></path>
</symbol>
<symbol id="icon-speaks" viewBox="0 0 32 32">
<path d="M24.576 14.976c0-6.784-6.144-11.136-12.288-11.136s-12.288 4.352-12.288 11.136c0 2.56 1.024 4.992 2.688 6.912-0.476 2.086-1.272 3.926-2.344 5.569l0.040-0.065v0.896c0 0.256 0.256 0.384 0.512 0.384 2.688 0 5.76-0.896 7.68-3.072h0.128l3.584 0.384c6.144 0 12.288-4.352 12.288-11.008zM8.96 24.576c-0.384-0.128-0.768 0-1.152 0.256-1.792 2.176-4.864 2.56-6.4 2.688 0.64-1.024 1.792-2.944 2.304-5.12 0-0.384 0-0.896-0.384-1.28-1.487-1.613-2.407-3.769-2.432-6.139l-0-0.005c0-5.504 5.12-10.112 11.52-10.112 6.144 0 11.264 4.608 11.264 10.112s-5.12 9.984-11.392 9.984c-0.062 0.001-0.136 0.002-0.209 0.002-1.108 0-2.182-0.141-3.207-0.405l0.089 0.019z"></path>
<path d="M27.648 23.936c2.607-1.435 4.345-4.162 4.352-7.295v-0.001c0-4.096-3.328-7.68-7.68-8.448-0.384 0-0.64 0.128-0.64 0.512 0 0.256 0.128 0.512 0.384 0.512 4.096 0.768 7.040 3.84 7.040 7.424 0 2.56-1.536 4.864-3.84 6.272-0.403 0.221-0.671 0.642-0.671 1.126 0 0.1 0.011 0.197 0.033 0.291l-0.002-0.009c0.256 1.28 0.64 2.432 1.024 3.2-2.688-0.512-3.84-2.048-4.096-2.688-0.192-0.38-0.577-0.637-1.024-0.64h-0l-1.536-0.128c-0.256 0-0.512 0.128-0.512 0.384 0 0.384 0 0.64 0.384 0.64l1.664 0.128 0.256 0.128c1.28 2.56 4.096 3.2 5.376 3.328 0.256 0 0.512 0 0.64-0.384v-0.768c-0.563-0.959-1.005-2.071-1.266-3.252l-0.014-0.076v-0.256zM5.12 13.056c-1.024 0-1.792 0.768-1.792 1.792s0.768 1.92 1.664 1.92c0.896 0 1.664-0.896 1.664-1.92s-0.768-1.792-1.664-1.792zM5.12 15.616c-0.512 0-0.768-0.256-0.768-0.768 0-0.384 0.256-0.768 0.64-0.768s0.768 0.384 0.768 0.768c0 0.512-0.384 0.768-0.768 0.768zM9.6 13.056c-0.896 0-1.536 0.768-1.536 1.792s0.64 1.92 1.536 1.92 1.664-0.896 1.664-1.92-0.768-1.792-1.664-1.792zM9.6 15.616c-0.384 0-0.64-0.256-0.64-0.768 0-0.384 0.256-0.768 0.64-0.768s0.768 0.384 0.768 0.768c0 0.512-0.384 0.768-0.768 0.768zM14.336 13.056c-0.896 0-1.664 0.768-1.664 1.792s0.768 1.92 1.664 1.92c0.896 0 1.536-0.896 1.536-1.92s-0.64-1.792-1.536-1.792zM14.336 15.616c-0.384 0-0.768-0.256-0.768-0.768 0-0.384 0.384-0.768 0.768-0.768s0.64 0.384 0.64 0.768c0 0.512-0.256 0.768-0.64 0.768zM18.944 13.056c-0.896 0-1.664 0.768-1.664 1.792s0.768 1.92 1.664 1.92c0.896 0 1.664-0.896 1.664-1.92s-0.768-1.792-1.664-1.792zM18.944 15.616c-0.384 0-0.768-0.256-0.768-0.768 0-0.384 0.384-0.768 0.768-0.768s0.64 0.384 0.64 0.768c0 0.512-0.256 0.768-0.64 0.768z"></path>
</symbol>
<symbol id="icon-twitter" viewBox="0 0 32 32">
<path d="M32 5.4c-1.2 0.6-2.4 1-3.8 1.2 1.4-1 2.4-2.4 3-4l-4.2 1.8c-1.145-1.467-2.913-2.401-4.9-2.401-0.035 0-0.071 0-0.106 0.001l0.005-0c-3.4 0-6.4 3.2-6.4 7.4v1.6c-5.551-0.422-10.352-3.303-13.362-7.544l-0.038-0.056c-0.505 1.019-0.801 2.219-0.801 3.489 0 0.039 0 0.078 0.001 0.117l-0-0.006c0 2.6 1.2 4.8 2.8 6-0.002 0-0.004 0-0.007 0-1.102 0-2.134-0.297-3.022-0.815l0.028 0.015c0 3.8 2.4 6.8 5.4 7.6-0.45 0.121-0.967 0.191-1.5 0.191s-1.050-0.070-1.542-0.2l0.042 0.009c0.8 3 3.2 5 6 5.2-2.14 1.808-4.93 2.907-7.977 2.907-0.572 0-1.135-0.039-1.687-0.114l0.064 0.007c3 2 6.4 3.2 10 3.2 12 0 18.8-11.2 18.8-20.8v-1c1.273-1.061 2.339-2.319 3.164-3.733l0.036-0.067z"></path>
</symbol>
<symbol id="icon-close" viewBox="0 0 32 32">
<path d="M30.222 32c0.533 0 0.889 0 1.244-0.533 0.711-0.533 0.711-1.778 0-2.311l-28.622-28.622c-0.269-0.66-0.907-1.117-1.65-1.117-0.982 0-1.778 0.796-1.778 1.778 0 0.744 0.457 1.381 1.105 1.646l0.012 0.004 28.622 28.622c0.356 0.356 0.711 0.533 1.244 0.533z"></path>
<path d="M1.778 32c0.356 0 0.711 0 1.067-0.533l28.622-28.622c0.081-0.196 0.127-0.423 0.127-0.661 0-0.982-0.796-1.778-1.778-1.778-0.238 0-0.465 0.047-0.672 0.132l0.012-0.004-28.622 28.622c-0.237 0.299-0.38 0.682-0.38 1.098 0 0.865 0.617 1.585 1.435 1.745l0.011 0.002z"></path>
</symbol>
<symbol id="icon-menu" viewBox="0 0 60 32">
<path d="M2 0h56c1.105 0 2 0.895 2 2s-0.895 2-2 2h-56c-1.105 0-2-0.895-2-2s0.895-2 2-2z"></path>
<path d="M2 14h56c1.105 0 2 0.895 2 2s-0.895 2-2 2h-56c-1.105 0-2-0.895-2-2s0.895-2 2-2z"></path>
<path d="M2 28h56c1.105 0 2 0.895 2 2s-0.895 2-2 2h-56c-1.105 0-2-0.895-2-2s0.895-2 2-2z"></path>
</symbol>
</defs>
</svg>
